# xmcd
#
# Track frame offsets:
#	150
#	11696
#	17934
#	27574
#	34110
#	40610
#	45830
#	56367
#	63923
#	81132
#	86853
#	98916
#	119268
#	141305
#	155909
#	169710
#	176800
#	179464
#	184737
#	193646
#	208550
#	219939
#	232763
#	249445
#	260704
#	271093
#	281047
#	286961
#	294258
#	304688
#	316662
#	325660
#	331309
#
# Disc length: 4716 seconds
#
# Revision: 2
# Processed by: cddbd v1.5.1PL0 Copyright (c) Steve Scherf et al.
# Submitted via: EasyCDDAExtractor 8.2.1.1
#
DISCID=d1126a21
DTITLE=яелос амтымгс - яелос амтымгс LIVE 2004 CD2
DYEAR=2004
DGENRE=казйа
TTITLE0=стасоу поу пас
TTITLE1=амтио
TTITLE2=паяе ема йовуки апо то аицаио
TTITLE3=йи устеяа
TTITLE4=дем еилаи ецы
TTITLE5=г ацапг ока та уполемеи
TTITLE6=сумояа г ацапг де цмыяифеи
TTITLE7=споудаиои амхяыпои акка
TTITLE8=с' ацапы ле тгм екема папаяифоу
TTITLE9=паки упмос де ле пиамеи
TTITLE10=ма 'вам окои ои амхяыпои лиа ацапг опко
TTITLE11=апо то аеяопкамо
TTITLE12=ека ма ле текеиысеис
TTITLE13=дем текеиысале
TTITLE14=пакиойаияос
TTITLE15=ти се моиафеи
TTITLE16=дысе лоу лиа еуйаияиа
TTITLE17=пес лоу ти фгтас
TTITLE18=ека поу жобалаи
TTITLE19=жеццаяи
TTITLE20=о дийос лоу о дяолос
TTITLE21=ема тяацоуди айола
TTITLE22=ема цяалла
TTITLE23=ха 'хека ма 'соум еды
TTITLE24=апоье хекы ма пиы
TTITLE25=лоу 'веис йамеи тг фыг лоу йокасг
TTITLE26=лг ликас
TTITLE27=дем еива думалг
TTITLE28=ха ейяацы
TTITLE29=тг баяехгйе г ьувг лоу
TTITLE30=поу цуямас
TTITLE31=ле тоус акгтес
TTITLE32=гтаме кахос лоу
EXTD=
EXTT0=
EXTT1=
EXTT2=
EXTT3=
EXTT4=
EXTT5=
EXTT6=
EXTT7=
EXTT8=
EXTT9=
EXTT10=
EXTT11=
EXTT12=
EXTT13=
EXTT14=
EXTT15=
EXTT16=
EXTT17=
EXTT18=
EXTT19=
EXTT20=
EXTT21=
EXTT22=
EXTT23=
EXTT24=
EXTT25=
EXTT26=
EXTT27=
EXTT28=
EXTT29=
EXTT30=
EXTT31=
EXTT32=
PLAYORDER=
